{
  "accessors": [
    {
      "bufferView": 1,
      "componentType": 5126,
      "count": 15048,
      "max": [
        73.46729278564453,
        78.93489837646484,
        50.34274673461914
      ],
      "min": [
        36.82733917236328,
        15.63453197479248,
        -1.2721834182739258
      ],
      "type": "VEC3"
    },
    {
      "bufferView": 1,
      "byteOffset": 180576,
      "componentType": 5126,
      "count": 15048,
      "max": [
        0.9999225735664368,
        0.9998485445976257,
        0.999003529548645
      ],
      "min": [
        -0.9999225735664368,
        -0.9998485445976257,
        -0.999003529548645
      ],
      "type": "VEC3"
    },
    {
      "bufferView": 2,
      "componentType": 5126,
      "count": 15048,
      "max": [
        0.8235294222831726,
        0.7058823704719543,
        0.5490196347236633,
        1.0
      ],
      "min": [
        0.8235294222831726,
        0.7058823704719543,
        0.5490196347236633,
        1.0
      ],
      "type": "VEC4"
    },
    {
      "bufferView": 0,
      "componentType": 5125,
      "count": 45108,
      "type": "SCALAR"
    },
    {
      "bufferView": 1,
      "byteOffset": 361152,
      "componentType": 5126,
      "count": 28012,
      "max": [
        73.05108642578125,
        78.48157501220703,
        49.61660385131836
      ],
      "min": [
        37.531471252441406,
        16.902414321899414,
        -3.692058563232422
      ],
      "type": "VEC3"
    },
    {
      "bufferView": 1,
      "byteOffset": 697296,
      "componentType": 5126,
      "count": 28012,
      "max": [
        0.9999951720237732,
        0.9972743391990662,
        0.9997559785842896
      ],
      "min": [
        -0.9999951720237732,
        -0.9960156083106995,
        -0.9997559785842896
      ],
      "type": "VEC3"
    },
    {
      "bufferView": 2,
      "byteOffset": 240768,
      "componentType": 5126,
      "count": 28012,
      "max": [
        1.0,
        1.0,
        1.0,
        1.0
      ],
      "min": [
        0.250980406999588,
        0.250980406999588,
        0.250980406999588,
        1.0
      ],
      "type": "VEC4"
    },
    {
      "bufferView": 0,
      "byteOffset": 180432,
      "componentType": 5125,
      "count": 121824,
      "type": "SCALAR"
    }
  ],
  "asset": {
    "extras": {
      "author": "S.Duce (https://sketchfab.com/sduce)",
      "license": "CC-BY-4.0 (http://creativecommons.org/licenses/by/4.0/)",
      "source": "https://sketchfab.com/3d-models/riboswitch-mrna-molecular-structure-2ab16c629c9149148bef6c3b9bc3f74b",
      "title": "Riboswitch mRNA Molecular Structure"
    },
    "generator": "Sketchfab-10.42.0",
    "version": "2.0"
  },
  "bufferViews": [
    {
      "buffer": 0,
      "byteLength": 667728,
      "name": "floatBufferViews",
      "target": 34963
    },
    {
      "buffer": 0,
      "byteLength": 1033440,
      "byteOffset": 667728,
      "byteStride": 12,
      "name": "floatBufferViews",
      "target": 34962
    },
    {
      "buffer": 0,
      "byteLength": 688960,
      "byteOffset": 1701168,
      "byteStride": 16,
      "name": "floatBufferViews",
      "target": 34962
    }
  ],
  "buffers": [
    {
      "byteLength": 2390128,
      "uri": "scene.bin"
    }
  ],
  "materials": [
    {
      "doubleSided": true,
      "name": "Scene_-_Root",
      "pbrMetallicRoughness": {
        "metallicFactor": 0.0,
        "roughnessFactor": 0.6
      }
    }
  ],
  "meshes": [
    {
      "name": "Object_0",
      "primitives": [
        {
          "attributes": {
            "COLOR_0": 2,
            "NORMAL": 1,
            "POSITION": 0
          },
          "indices": 3,
          "material": 0,
          "mode": 4
        }
      ]
    },
    {
      "name": "Object_1",
      "primitives": [
        {
          "attributes": {
            "COLOR_0": 6,
            "NORMAL": 5,
            "POSITION": 4
          },
          "indices": 7,
          "material": 0,
          "mode": 4
        }
      ]
    }
  ],
  "nodes": [
    {
      "children": [
        1
      ],
      "matrix": [
        0.03333333507180214,
        0.0,
        0.0,
        0.0,
        0.0,
        7.401487216851996e-18,
        -0.03333333507180214,
        0.0,
        0.0,
        0.03333333507180214,
        7.401487216851996e-18,
        0.0,
        0.0,
        0.0,
        0.0,
        1.0
      ],
      "name": "Sketchfab_model"
    },
    {
      "children": [
        2
      ],
      "name": "root"
    },
    {
      "children": [
        3
      ],
      "matrix": [
        1.0,
        0.0,
        0.0,
        0.0,
        0.0,
        2.220446049250313e-16,
        1.0,
        0.0,
        0.0,
        -1.0,
        2.220446049250313e-16,
        0.0,
        0.0,
        0.0,
        0.0,
        1.0
      ],
      "name": "GLTF_SceneRootNode"
    },
    {
      "children": [
        4,
        6
      ],
      "name": "2gis_0"
    },
    {
      "children": [
        5
      ],
      "name": "ribbons_1"
    },
    {
      "mesh": 0,
      "name": "Object_5"
    },
    {
      "children": [
        7
      ],
      "name": "nucleotides_2"
    },
    {
      "mesh": 1,
      "name": "Object_7"
    }
  ],
  "scene": 0,
  "scenes": [
    {
      "name": "Sketchfab_Scene",
      "nodes": [
        0
      ]
    }
  ]
}
