{
  "accessors": [
    {
      "bufferView": 2,
      "componentType": 5126,
      "count": 8004,
      "max": [
        0.5067819356918335,
        0.4770582914352417,
        0.03668488562107086
      ],
      "min": [
        -0.5064993500709534,
        -0.7420529723167419,
        -0.03668869286775589
      ],
      "type": "VEC3"
    },
    {
      "bufferView": 2,
      "byteOffset": 96048,
      "componentType": 5126,
      "count": 8004,
      "max": [
        0.9995572566986084,
        1.0,
        0.999148964881897
      ],
      "min": [
        -0.9995572566986084,
        -1.0,
        -0.9991493225097656
      ],
      "type": "VEC3"
    },
    {
      "bufferView": 3,
      "componentType": 5126,
      "count": 8004,
      "max": [
        0.9994574785232544,
        1.0,
        0.999995231628418,
        1.0
      ],
      "min": [
        -1.0,
        -0.9951582551002502,
        -1.0,
        1.0
      ],
      "type": "VEC4"
    },
    {
      "bufferView": 1,
      "componentType": 5126,
      "count": 8004,
      "max": [
        0.9882422685623169,
        0.8934706449508667
      ],
      "min": [
        0.01175769791007042,
        0.01175769791007042
      ],
      "type": "VEC2"
    },
    {
      "bufferView": 1,
      "byteOffset": 64032,
      "componentType": 5126,
      "count": 8004,
      "max": [
        0.9882422685623169,
        0.8934706449508667
      ],
      "min": [
        0.01175769791007042,
        0.01175769791007042
      ],
      "type": "VEC2"
    },
    {
      "bufferView": 1,
      "byteOffset": 128064,
      "componentType": 5126,
      "count": 8004,
      "max": [
        0.9882422685623169,
        0.8934706449508667
      ],
      "min": [
        0.01175769791007042,
        0.01175769791007042
      ],
      "type": "VEC2"
    },
    {
      "bufferView": 0,
      "componentType": 5125,
      "count": 38592,
      "type": "SCALAR"
    }
  ],
  "asset": {
    "extras": {
      "author": "Lucas.Presoto (https://sketchfab.com/Lucas.Presoto)",
      "license": "CC-BY-4.0 (http://creativecommons.org/licenses/by/4.0/)",
      "source": "https://sketchfab.com/3d-models/antibodies-ige-57a9a24eba3841aaacaf6cbb88d87a01",
      "title": "Antibodies IgE"
    },
    "generator": "Sketchfab-11.19.0",
    "version": "2.0"
  },
  "bufferViews": [
    {
      "buffer": 0,
      "byteLength": 154368,
      "name": "floatBufferViews",
      "target": 34963
    },
    {
      "buffer": 0,
      "byteLength": 192096,
      "byteOffset": 154368,
      "byteStride": 8,
      "name": "floatBufferViews",
      "target": 34962
    },
    {
      "buffer": 0,
      "byteLength": 192096,
      "byteOffset": 346464,
      "byteStride": 12,
      "name": "floatBufferViews",
      "target": 34962
    },
    {
      "buffer": 0,
      "byteLength": 128064,
      "byteOffset": 538560,
      "byteStride": 16,
      "name": "floatBufferViews",
      "target": 34962
    }
  ],
  "buffers": [
    {
      "byteLength": 666624,
      "uri": "scene.bin"
    }
  ],
  "images": [
    {
      "uri": "textures/Material_baseColor.png"
    },
    {
      "uri": "textures/Material_metallicRoughness.png"
    },
    {
      "uri": "textures/Material_normal.png"
    }
  ],
  "materials": [
    {
      "doubleSided": true,
      "name": "Material",
      "normalTexture": {
        "index": 2
      },
      "pbrMetallicRoughness": {
        "baseColorTexture": {
          "index": 0
        },
        "metallicRoughnessTexture": {
          "index": 1
        }
      }
    }
  ],
  "meshes": [
    {
      "name": "IgE_Material_0",
      "primitives": [
        {
          "attributes": {
            "NORMAL": 1,
            "POSITION": 0,
            "TANGENT": 2,
            "TEXCOORD_0": 3,
            "TEXCOORD_1": 4,
            "TEXCOORD_2": 5
          },
          "indices": 6,
          "material": 0,
          "mode": 4
        }
      ]
    }
  ],
  "nodes": [
    {
      "children": [
        1
      ],
      "matrix": [
        1.0,
        0.0,
        0.0,
        0.0,
        0.0,
        2.220446049250313e-16,
        -1.0,
        0.0,
        0.0,
        1.0,
        2.220446049250313e-16,
        0.0,
        0.0,
        0.0,
        0.0,
        1.0
      ],
      "name": "Sketchfab_model"
    },
    {
      "children": [
        2
      ],
      "matrix": [
        1.0,
        0.0,
        0.0,
        0.0,
        0.0,
        0.0,
        1.0,
        0.0,
        0.0,
        -1.0,
        0.0,
        0.0,
        0.0,
        0.0,
        0.0,
        1.0
      ],
      "name": "2a7a76fa83e3451f9d50d7bca6ac9eb6.fbx"
    },
    {
      "children": [
        3
      ],
      "name": "RootNode"
    },
    {
      "children": [
        4
      ],
      "matrix": [
        -0.9999999999999964,
        1.2246467991473515e-16,
        8.742278000372476e-08,
        0.0,
        -3.698906412640348e-15,
        0.999999999999999,
        -4.371138840920244e-08,
        0.0,
        -8.742278000372468e-08,
        -4.37113884092026e-08,
        -0.9999999999999956,
        0.0,
        0.03567078709602356,
        0.7243801951408386,
        -0.14256922900676727,
        1.0
      ],
      "name": "IgE"
    },
    {
      "mesh": 0,
      "name": "IgE_Material_0"
    }
  ],
  "samplers": [
    {
      "magFilter": 9729,
      "minFilter": 9987,
      "wrapS": 10497,
      "wrapT": 10497
    }
  ],
  "scene": 0,
  "scenes": [
    {
      "name": "Sketchfab_Scene",
      "nodes": [
        0
      ]
    }
  ],
  "textures": [
    {
      "sampler": 0,
      "source": 0
    },
    {
      "sampler": 0,
      "source": 1
    },
    {
      "sampler": 0,
      "source": 2
    }
  ]
}
