{
  "accessors": [
    {
      "bufferView": 2,
      "componentType": 5126,
      "count": 65532,
      "max": [
        1.1575638055801392,
        1.1821326017379761,
        1.2676401138305664
      ],
      "min": [
        -1.2551853656768799,
        -1.1784813404083252,
        -1.1472184658050537
      ],
      "type": "VEC3"
    },
    {
      "bufferView": 2,
      "byteOffset": 786384,
      "componentType": 5126,
      "count": 65532,
      "max": [
        0.99997889995574951,
        0.99997782707214355,
        0.99999260902404785
      ],
      "min": [
        -0.99998533725738525,
        -0.99991250038146973,
        -0.99994850158691406
      ],
      "type": "VEC3"
    },
    {
      "bufferView": 3,
      "componentType": 5126,
      "count": 65532,
      "max": [
        0.99997603893280029,
        0.99999982118606567,
        0.99998515844345093,
        1
      ],
      "min": [
        -0.99999117851257324,
        -0.99997371435165405,
        -0.99995893239974976,
        -1
      ],
      "type": "VEC4"
    },
    {
      "bufferView": 3,
      "byteOffset": 1048512,
      "componentType": 5126,
      "count": 65532,
      "max": [
        1,
        1,
        1,
        1
      ],
      "min": [
        0.99607843160629272,
        0.99607843160629272,
        0.99607843160629272,
        0.99607843160629272
      ],
      "type": "VEC4"
    },
    {
      "bufferView": 1,
      "componentType": 5126,
      "count": 65532,
      "max": [
        0.99627578258514404,
        0.99791479110717773
      ],
      "min": [
        0.0019126500701531768,
        0.0019126500701531768
      ],
      "type": "VEC2"
    },
    {
      "bufferView": 1,
      "byteOffset": 524256,
      "componentType": 5126,
      "count": 65532,
      "max": [
        0.99627578258514404,
        0.99791479110717773
      ],
      "min": [
        0.0019126500701531768,
        0.0019126500701531768
      ],
      "type": "VEC2"
    },
    {
      "bufferView": 1,
      "byteOffset": 1048512,
      "componentType": 5126,
      "count": 65532,
      "max": [
        0.99627578258514404,
        0.99791479110717773
      ],
      "min": [
        0.0019126500701531768,
        0.0019126500701531768
      ],
      "type": "VEC2"
    },
    {
      "bufferView": 0,
      "componentType": 5125,
      "count": 331683,
      "max": [
        65531
      ],
      "min": [
        0
      ],
      "type": "SCALAR"
    },
    {
      "bufferView": 2,
      "byteOffset": 1572768,
      "componentType": 5126,
      "count": 44494,
      "max": [
        1.0783305168151855,
        1.1129883527755737,
        1.2736475467681885
      ],
      "min": [
        -1.2480651140213013,
        -0.97948271036148071,
        -1.1698740720748901
      ],
      "type": "VEC3"
    },
    {
      "bufferView": 2,
      "byteOffset": 2106696,
      "componentType": 5126,
      "count": 44494,
      "max": [
        0.99991679191589355,
        0.99994885921478271,
        0.99991917610168457
      ],
      "min": [
        -0.99998271465301514,
        -0.99995160102844238,
        -0.99998235702514648
      ],
      "type": "VEC3"
    },
    {
      "bufferView": 3,
      "byteOffset": 2097024,
      "componentType": 5126,
      "count": 44494,
      "max": [
        0.99998724460601807,
        0.99999481439590454,
        0.9999961256980896,
        1
      ],
      "min": [
        -0.9999881386756897,
        -1,
        -0.99997550249099731,
        -1
      ],
      "type": "VEC4"
    },
    {
      "bufferView": 3,
      "byteOffset": 2808928,
      "componentType": 5126,
      "count": 44494,
      "max": [
        1,
        1,
        1,
        1
      ],
      "min": [
        0.99607843160629272,
        0.99607843160629272,
        0.99607843160629272,
        0.99607843160629272
      ],
      "type": "VEC4"
    },
    {
      "bufferView": 1,
      "byteOffset": 1572768,
      "componentType": 5126,
      "count": 44494,
      "max": [
        0.99733704328536987,
        0.99779325723648071
      ],
      "min": [
        0.0019126500701531768,
        0.0019126500701531768
      ],
      "type": "VEC2"
    },
    {
      "bufferView": 1,
      "byteOffset": 1928720,
      "componentType": 5126,
      "count": 44494,
      "max": [
        0.99733704328536987,
        0.99779325723648071
      ],
      "min": [
        0.0019126500701531768,
        0.0019126500701531768
      ],
      "type": "VEC2"
    },
    {
      "bufferView": 1,
      "byteOffset": 2284672,
      "componentType": 5126,
      "count": 44494,
      "max": [
        0.99733704328536987,
        0.99779325723648071
      ],
      "min": [
        0.0019126500701531768,
        0.0019126500701531768
      ],
      "type": "VEC2"
    },
    {
      "bufferView": 0,
      "byteOffset": 1326732,
      "componentType": 5125,
      "count": 226137,
      "max": [
        44493
      ],
      "min": [
        0
      ],
      "type": "SCALAR"
    }
  ],
  "asset": {
    "extras": {
      "author": "aqpetteri (https://sketchfab.com/aqpetteri)",
      "license": "CC-BY-4.0 (http://creativecommons.org/licenses/by/4.0/)",
      "source": "https://sketchfab.com/3d-models/corona-virus-covid-19-9b791066661241bfbf37327fa9cbd473",
      "title": "Corona Virus COVID-19"
    },
    "generator": "Sketchfab-8.20.0",
    "version": "2.0"
  },
  "bufferViews": [
    {
      "buffer": 0,
      "byteLength": 2231280,
      "byteOffset": 0,
      "name": "floatBufferViews",
      "target": 34963
    },
    {
      "buffer": 0,
      "byteLength": 2640624,
      "byteOffset": 2231280,
      "byteStride": 8,
      "name": "floatBufferViews",
      "target": 34962
    },
    {
      "buffer": 0,
      "byteLength": 2640624,
      "byteOffset": 4871904,
      "byteStride": 12,
      "name": "floatBufferViews",
      "target": 34962
    },
    {
      "buffer": 0,
      "byteLength": 3520832,
      "byteOffset": 7512528,
      "byteStride": 16,
      "name": "floatBufferViews",
      "target": 34962
    }
  ],
  "buffers": [
    {
      "byteLength": 11033360,
      "uri": "scene.bin"
    }
  ],
  "images": [
    {
      "uri": "textures/Material_baseColor.jpeg"
    },
    {
      "uri": "textures/Material_metallicRoughness.png"
    },
    {
      "uri": "textures/Material_normal.png"
    }
  ],
  "materials": [
    {
      "doubleSided": true,
      "name": "Material",
      "normalTexture": {
        "index": 2,
        "scale": 0.59999999999999998,
        "texCoord": 0
      },
      "occlusionTexture": {
        "index": 1,
        "strength": 1,
        "texCoord": 0
      },
      "pbrMetallicRoughness": {
        "baseColorFactor": [
          1,
          1,
          1,
          1
        ],
        "baseColorTexture": {
          "index": 0,
          "texCoord": 0
        },
        "metallicFactor": 0,
        "metallicRoughnessTexture": {
          "index": 1,
          "texCoord": 0
        },
        "roughnessFactor": 0.78478916581854763
      }
    }
  ],
  "meshes": [
    {
      "name": "VirusMedpoly.002_Material_0",
      "primitives": [
        {
          "attributes": {
            "COLOR_0": 3,
            "NORMAL": 1,
            "POSITION": 0,
            "TANGENT": 2,
            "TEXCOORD_0": 4,
            "TEXCOORD_1": 5,
            "TEXCOORD_2": 6
          },
          "indices": 7,
          "material": 0,
          "mode": 4
        }
      ]
    },
    {
      "name": "VirusMedpoly.002_Material_0",
      "primitives": [
        {
          "attributes": {
            "COLOR_0": 11,
            "NORMAL": 9,
            "POSITION": 8,
            "TANGENT": 10,
            "TEXCOORD_0": 12,
            "TEXCOORD_1": 13,
            "TEXCOORD_2": 14
          },
          "indices": 15,
          "material": 0,
          "mode": 4
        }
      ]
    }
  ],
  "nodes": [
    {
      "children": [
        1
      ],
      "name": "RootNode (gltf orientation matrix)",
      "rotation": [
        -0.70710678118654746,
        -0,
        -0,
        0.70710678118654757
      ]
    },
    {
      "children": [
        2
      ],
      "name": "RootNode (model correction matrix)"
    },
    {
      "children": [
        3
      ],
      "matrix": [
        1,
        0,
        0,
        0,
        0,
        0,
        1,
        0,
        0,
        -1,
        0,
        0,
        0,
        0,
        0,
        1
      ],
      "name": "CoronaModel.fbx"
    },
    {
      "children": [
        4
      ],
      "name": "RootNode"
    },
    {
      "children": [
        5,
        6
      ],
      "matrix": [
        100,
        0,
        0,
        0,
        0,
        -1.6292067939183141e-05,
        -99.999999999998678,
        0,
        0,
        99.999999999998678,
        -1.6292067939183141e-05,
        0,
        0,
        0,
        0,
        1
      ],
      "name": "VirusMedpoly.002"
    },
    {
      "mesh": 0,
      "name": "VirusMedpoly.002_Material_0"
    },
    {
      "mesh": 1,
      "name": "VirusMedpoly.002_Material_0"
    }
  ],
  "samplers": [
    {
      "magFilter": 9729,
      "minFilter": 9987,
      "wrapS": 10497,
      "wrapT": 10497
    }
  ],
  "scene": 0,
  "scenes": [
    {
      "name": "OSG_Scene",
      "nodes": [
        0
      ]
    }
  ],
  "textures": [
    {
      "sampler": 0,
      "source": 0
    },
    {
      "sampler": 0,
      "source": 1
    },
    {
      "sampler": 0,
      "source": 2
    }
  ]
}

