{
  "accessors": [
    {
      "bufferView": 2,
      "componentType": 5126,
      "count": 65532,
      "max": [
        36.816299438476562,
        11.854406356811523,
        42.916107177734375
      ],
      "min": [
        -28.177513122558594,
        -14.363665580749512,
        1.9656684398651123
      ],
      "type": "VEC3"
    },
    {
      "bufferView": 2,
      "byteOffset": 786384,
      "componentType": 5126,
      "count": 65532,
      "max": [
        0.99999773502349854,
        0.99999165534973145,
        1
      ],
      "min": [
        -0.99992513656616211,
        -0.99999988079071045,
        -0.99990522861480713
      ],
      "type": "VEC3"
    },
    {
      "bufferView": 3,
      "componentType": 5126,
      "count": 65532,
      "max": [
        0.99991029500961304,
        0.99999475479125977,
        0.99996858835220337,
        1
      ],
      "min": [
        -0.99994426965713501,
        -0.99997007846832275,
        -0.99997246265411377,
        -1
      ],
      "type": "VEC4"
    },
    {
      "bufferView": 3,
      "byteOffset": 1048512,
      "componentType": 5126,
      "count": 65532,
      "max": [
        1,
        1,
        1,
        1
      ],
      "min": [
        1,
        1,
        1,
        0
      ],
      "type": "VEC4"
    },
    {
      "bufferView": 1,
      "componentType": 5126,
      "count": 65532,
      "max": [
        0.99898713827133179,
        0.99901670217514038
      ],
      "min": [
        0.0010519017232581973,
        0.00099599466193467379
      ],
      "type": "VEC2"
    },
    {
      "bufferView": 0,
      "componentType": 5125,
      "count": 292461,
      "max": [
        65531
      ],
      "min": [
        0
      ],
      "type": "SCALAR"
    },
    {
      "bufferView": 2,
      "byteOffset": 1572768,
      "componentType": 5126,
      "count": 15334,
      "max": [
        14.231813430786133,
        11.4332275390625,
        42.388092041015625
      ],
      "min": [
        -27.457775115966797,
        -15.578553199768066,
        1.9684522151947021
      ],
      "type": "VEC3"
    },
    {
      "bufferView": 2,
      "byteOffset": 1756776,
      "componentType": 5126,
      "count": 15334,
      "max": [
        0.9999619722366333,
        0.99997347593307495,
        0.99986100196838379
      ],
      "min": [
        -0.99984186887741089,
        -0.99997550249099731,
        -0.99980539083480835
      ],
      "type": "VEC3"
    },
    {
      "bufferView": 3,
      "byteOffset": 2097024,
      "componentType": 5126,
      "count": 15334,
      "max": [
        0.99991399049758911,
        0.99994319677352905,
        0.99999880790710449,
        1
      ],
      "min": [
        -0.99998587369918823,
        -0.99995279312133789,
        -0.99997556209564209,
        -1
      ],
      "type": "VEC4"
    },
    {
      "bufferView": 3,
      "byteOffset": 2342368,
      "componentType": 5126,
      "count": 15334,
      "max": [
        1,
        1,
        1,
        0
      ],
      "min": [
        1,
        1,
        1,
        0
      ],
      "type": "VEC4"
    },
    {
      "bufferView": 1,
      "byteOffset": 524256,
      "componentType": 5126,
      "count": 15334,
      "max": [
        0.99801415205001831,
        0.99901688098907471
      ],
      "min": [
        0.001309044542722404,
        0.0012133115669712424
      ],
      "type": "VEC2"
    },
    {
      "bufferView": 0,
      "byteOffset": 1169844,
      "componentType": 5125,
      "count": 67038,
      "max": [
        15333
      ],
      "min": [
        0
      ],
      "type": "SCALAR"
    },
    {
      "bufferView": 2,
      "byteOffset": 1940784,
      "componentType": 5126,
      "count": 24,
      "max": [
        350,
        350,
        20
      ],
      "min": [
        -350,
        -350,
        0
      ],
      "type": "VEC3"
    },
    {
      "bufferView": 2,
      "byteOffset": 1941072,
      "componentType": 5126,
      "count": 24,
      "max": [
        1,
        1,
        1
      ],
      "min": [
        -1,
        -1,
        -1
      ],
      "type": "VEC3"
    },
    {
      "bufferView": 3,
      "byteOffset": 2587712,
      "componentType": 5126,
      "count": 24,
      "max": [
        1,
        1,
        0,
        1
      ],
      "min": [
        -1,
        -1,
        0,
        1
      ],
      "type": "VEC4"
    },
    {
      "bufferView": 1,
      "byteOffset": 646928,
      "componentType": 5126,
      "count": 24,
      "max": [
        1,
        1
      ],
      "min": [
        0,
        0
      ],
      "type": "VEC2"
    },
    {
      "bufferView": 0,
      "byteOffset": 1437996,
      "componentType": 5125,
      "count": 36,
      "max": [
        23
      ],
      "min": [
        0
      ],
      "type": "SCALAR"
    }
  ],
  "asset": {
    "extras": {
      "author": "3dhdscan (https://sketchfab.com/3dhdscan)",
      "license": "CC-BY-4.0 (http://creativecommons.org/licenses/by/4.0/)",
      "source": "https://sketchfab.com/models/8a417cb6d9244451921e973fa469b43f",
      "title": "Turbo schaft engine Ivchenko AL-20"
    },
    "generator": "Sketchfab-3.19.5",
    "version": "2.0"
  },
  "bufferViews": [
    {
      "buffer": 0,
      "byteLength": 1438140,
      "byteOffset": 0,
      "name": "floatBufferViews",
      "target": 34963
    },
    {
      "buffer": 0,
      "byteLength": 647120,
      "byteOffset": 1438140,
      "byteStride": 8,
      "name": "floatBufferViews",
      "target": 34962
    },
    {
      "buffer": 0,
      "byteLength": 1941360,
      "byteOffset": 2085260,
      "byteStride": 12,
      "name": "floatBufferViews",
      "target": 34962
    },
    {
      "buffer": 0,
      "byteLength": 2588096,
      "byteOffset": 4026620,
      "byteStride": 16,
      "name": "floatBufferViews",
      "target": 34962
    }
  ],
  "buffers": [
    {
      "byteLength": 6614716,
      "uri": "scene.bin"
    }
  ],
  "images": [
    {
      "uri": "textures/01_-_Default_metallicRoughness.png"
    },
    {
      "uri": "textures/01_-_Default_normal.jpeg"
    },
    {
      "uri": "textures/01_-_Default_baseColor.jpeg"
    },
    {
      "uri": "textures/description_baseColor.jpeg"
    }
  ],
  "materials": [
    {
      "doubleSided": true,
      "emissiveFactor": [
        0,
        0,
        0
      ],
      "name": "01_-_Default",
      "normalTexture": {
        "index": 1,
        "scale": 1,
        "texCoord": 0
      },
      "occlusionTexture": {
        "index": 0,
        "strength": 1,
        "texCoord": 0
      },
      "pbrMetallicRoughness": {
        "baseColorFactor": [
          1,
          1,
          1,
          1
        ],
        "baseColorTexture": {
          "index": 2,
          "texCoord": 0
        },
        "metallicFactor": 0,
        "roughnessFactor": 0.85194359760000005
      }
    },
    {
      "doubleSided": false,
      "name": "description",
      "pbrMetallicRoughness": {
        "baseColorFactor": [
          1,
          1,
          1,
          1
        ],
        "baseColorTexture": {
          "index": 3,
          "texCoord": 0
        },
        "metallicFactor": 0,
        "roughnessFactor": 0.99828506100000003
      }
    }
  ],
  "meshes": [
    {
      "name": "tryskovy_motor_01 - Default_0",
      "primitives": [
        {
          "attributes": {
            "COLOR_0": 3,
            "NORMAL": 1,
            "POSITION": 0,
            "TANGENT": 2,
            "TEXCOORD_0": 4
          },
          "indices": 5,
          "material": 0,
          "mode": 4
        }
      ]
    },
    {
      "name": "tryskovy_motor_01 - Default_0",
      "primitives": [
        {
          "attributes": {
            "COLOR_0": 9,
            "NORMAL": 7,
            "POSITION": 6,
            "TANGENT": 8,
            "TEXCOORD_0": 10
          },
          "indices": 11,
          "material": 0,
          "mode": 4
        }
      ]
    },
    {
      "name": "description_description_0",
      "primitives": [
        {
          "attributes": {
            "NORMAL": 13,
            "POSITION": 12,
            "TANGENT": 14,
            "TEXCOORD_0": 15
          },
          "indices": 16,
          "material": 1,
          "mode": 4
        }
      ]
    }
  ],
  "nodes": [
    {
      "children": [
        1
      ],
      "name": "RootNode (gltf orientation matrix)",
      "rotation": [
        -0.70710678118654746,
        -0,
        -0,
        0.70710678118654757
      ]
    },
    {
      "children": [
        2
      ],
      "name": "RootNode (model correction matrix)"
    },
    {
      "children": [
        3
      ],
      "matrix": [
        1,
        0,
        0,
        0,
        0,
        0,
        1,
        0,
        0,
        -1,
        0,
        0,
        0,
        0,
        0,
        1
      ],
      "name": "tryskovy_motor_ske.FBX"
    },
    {
      "children": [
        4,
        7
      ],
      "name": "RootNode"
    },
    {
      "children": [
        5,
        6
      ],
      "matrix": [
        4.3711388619804836e-06,
        -5.5511151231257827e-15,
        99.999999999999915,
        0,
        99.999999999999915,
        1.1102230246251565e-14,
        -4.3711388675315987e-06,
        0,
        -1.6653345369377348e-14,
        100,
        0,
        0,
        0,
        0,
        0,
        1
      ],
      "name": "tryskovy_motor"
    },
    {
      "mesh": 0,
      "name": "tryskovy_motor_01 - Default_0"
    },
    {
      "mesh": 1,
      "name": "tryskovy_motor_01 - Default_0"
    },
    {
      "children": [
        8
      ],
      "matrix": [
        -0.015148439434791376,
        0.0028964281063395534,
        0.61010074575968143,
        0,
        0.072971202036846081,
        0.60591654087704216,
        -0.001064732126731557,
        0,
        -0.60572808498995023,
        0.072921469303825134,
        -0.015386060528382256,
        0,
        -1415.8935546875,
        1022.6212768554688,
        531.3695068359375,
        1
      ],
      "name": "description"
    },
    {
      "mesh": 2,
      "name": "description_description_0"
    }
  ],
  "samplers": [
    {
      "magFilter": 9729,
      "minFilter": 9987,
      "wrapS": 33071,
      "wrapT": 33071
    },
    {
      "magFilter": 9729,
      "minFilter": 9987,
      "wrapS": 10497,
      "wrapT": 10497
    }
  ],
  "scene": 0,
  "scenes": [
    {
      "name": "OSG_Scene",
      "nodes": [
        0
      ]
    }
  ],
  "textures": [
    {
      "sampler": 0,
      "source": 0
    },
    {
      "sampler": 0,
      "source": 1
    },
    {
      "sampler": 0,
      "source": 2
    },
    {
      "sampler": 1,
      "source": 3
    }
  ]
}

